<svg id="Layer_1" data-name="Layer 1" xmlns="http://www.w3.org/2000/svg" viewBox="0 0 34.37 34.37"><title>about__items--icon2</title><path d="M0.29,14.07a17.25,17.25,0,0,0,0,6.3l4.12-3.21Z" transform="translate(0 0)" style="fill:#6cc7b6"/><path d="M24.4,1.59A17.21,17.21,0,0,0,9.15,2l7.51,5.63Z" transform="translate(0 0)" style="fill:#6cc7b6"/><path d="M33.9,13.17l-4.81,3.75L34,20.62A17.25,17.25,0,0,0,33.9,13.17Z" transform="translate(0 0)" style="fill:#6cc7b6"/><path d="M9.21,32.41a17.21,17.21,0,0,0,15.73.11l-8.1-6.06Z" transform="translate(0 0)" style="fill:#6cc7b6"/><path d="M7.91,14.43L1.68,9.77a17.15,17.15,0,0,0-.82,2.06l5.31,4Z" transform="translate(0 0)" style="fill:#6cc7b6"/><path d="M18.59,25.1l8.34,6.24c0.28-.19.55-0.39,0.82-0.6s0.62-.5.92-0.77l-8.33-6.23Z" transform="translate(0 0)" style="fill:#6cc7b6"/><path d="M11.41,11.71L4,6.16A17.1,17.1,0,0,0,2.73,7.88l6.93,5.19Z" transform="translate(0 0)" style="fill:#6cc7b6"/><path d="M22.09,22.38l8.09,6.06a17.09,17.09,0,0,0,1.3-1.7L23.84,21Z" transform="translate(0 0)" style="fill:#6cc7b6"/><path d="M14.91,9L7.2,3.2l-0.57.43Q6,4.09,5.49,4.6l7.68,5.75Z" transform="translate(0 0)" style="fill:#6cc7b6"/><path d="M25.59,19.65l7,5.22a17.18,17.18,0,0,0,.86-2l-6.08-4.55Z" transform="translate(0 0)" style="fill:#6cc7b6"/><path d="M26.45,2.71L0.88,22.63a17.11,17.11,0,0,0,.84,2.06L28.24,4A17,17,0,0,0,26.45,2.71Z" transform="translate(0 0)" style="fill:#6cc7b6"/><path d="M30.74,6.62Q30.29,6,29.8,5.52l-27,21q0.39,0.6.84,1.18l0.44,0.53L31.16,7.18Z" transform="translate(0 0)" style="fill:#6cc7b6"/><path d="M32.3,9L5.55,29.84a17.12,17.12,0,0,0,1.71,1.38L33.22,11A17.12,17.12,0,0,0,32.3,9Z" transform="translate(0 0)" style="fill:#6cc7b6"/></svg>