<svg id="Layer_1" data-name="Layer 1" xmlns="http://www.w3.org/2000/svg" viewBox="0 0 20.29 18.85"><title>basket-hover</title><path d="M19.54,7.23H16.39L13,0.41a0.75,0.75,0,1,0-1.34.67l3.07,6.14H5.58L8.65,1.09A0.75,0.75,0,1,0,7.31.41L3.9,7.23H0.75a0.75,0.75,0,1,0,0,1.5H0.91l0.85,3a0.73,0.73,0,0,0,.38,1.33L3.8,18.85H16.5l1.66-5.79a0.74,0.74,0,0,0,.7-0.74,0.74,0.74,0,0,0-.32-0.6l0.85-3h0.16A0.75,0.75,0,0,0,19.54,7.23ZM15.36,17.35H4.93L3.71,13.06H16.59ZM17,11.56H3.28L2.47,8.73H17.83Z" transform="translate(0 0)" style="fill:#63d2bc"/></svg>