<svg id="Layer_1" data-name="Layer 1" xmlns="http://www.w3.org/2000/svg" viewBox="0 0 14.96 27.72"><title>fb-hover</title><g id="facebook"><path d="M11.66,5.19a6.68,6.68,0,0,0,2.68-.3,8.12,8.12,0,0,0,.62-3,1.09,1.09,0,0,1-.21-0.4c0-.2-0.28-0.19-0.31-0.4C14.17,0.94,14,.68,13.72.51L11.56,0A13.56,13.56,0,0,0,9,.11,6.62,6.62,0,0,0,3.72,2.5c0,0.08,0,.2-0.1.2C3,4.29,3.49,6.32,3.41,8.28c0.1,0.44.11,1,.2,1.39a18.82,18.82,0,0,1-3.4.5A3.06,3.06,0,0,0,0,11.87a15,15,0,0,0,.41,1.59,3.53,3.53,0,0,0,.83.5,0.44,0.44,0,0,1,.1.1c0.51,0.27,1.45,0,2.27.1-0.14,2,.26,3.92,0,5.68a2,2,0,0,1,.21.8A8.25,8.25,0,0,0,4,23.33a2.63,2.63,0,0,0-.41,1.79c0.12,0,.11.16,0.1,0.3-0.07.47,0.64,0.17,0.52,0.7,0.16,0.46-.43.18-0.41,0.5v0.9a6,6,0,0,0,2.27.2c0.91-.42,2.19-0.48,2.79-1.2a1.28,1.28,0,0,0,1.24-.2,2.82,2.82,0,0,0,.21-0.7,3.32,3.32,0,0,1-.1-0.9V21.83c-0.21-2.29,0-4.94-.31-7.18a9.1,9.1,0,0,0,2.58-.4A4.85,4.85,0,0,0,13,12.37a1.56,1.56,0,0,0,.21-1,2.4,2.4,0,0,0,.1-1.1c-0.14-.6-0.17-1.3-0.83-1.39-0.88-.24-2,0.6-3,0.3,0-1.13-.29-2.34,0-3.39C10.24,5.61,10.94,5.39,11.66,5.19ZM7.84,10a3.76,3.76,0,0,0,.41.7c0.08,0,.2,0,0.21.1a10.32,10.32,0,0,0,3.1-.3A7.46,7.46,0,0,1,11,13a10,10,0,0,1-2,.2,7.41,7.41,0,0,0-.62.7,2.26,2.26,0,0,1,0,.8,3.7,3.7,0,0,0-.21.8V17a1.7,1.7,0,0,1-.1.5v3.49a1.75,1.75,0,0,0,.1.5v3a1.46,1.46,0,0,0,.1.9c-0.07.36-.41,0-0.82,0.1a7.66,7.66,0,0,1-1.55.4,2.81,2.81,0,0,0,.31-1.1c0-.38-0.37-0.31-0.52-0.5,0.19-.64.56-1.12,0.72-1.79,0.2-.51.71-1.3,0.31-1.79A1,1,0,0,0,6,21c0,0.08,0,.2-0.1.2s0,0.2-.1.2-0.15.06,0,0,0-.2.1-0.2,0-.2.1-0.2v-0.3a5.71,5.71,0,0,0,.83-2,4.81,4.81,0,0,0,.41-1,1.29,1.29,0,0,0,.1-1.2,1,1,0,0,0-.93.7c-0.32-.19.16-0.43,0.1-0.7,0.14-.23.17-0.57,0.31-0.8,0.2-.41.56-1.3,0-1.6a0.66,0.66,0,0,0-.72.5,1.45,1.45,0,0,0-.52.7c-0.37-.07-0.14-0.73-0.21-1.1a8.53,8.53,0,0,0,0-1.2c-0.56-.8-2-0.11-3.2-0.3a2.24,2.24,0,0,1-.1-1.2c1-.09,2.48.2,3.2-0.2,0-.08,0-0.2.1-0.2a1.78,1.78,0,0,0-.51-1.4,17.1,17.1,0,0,0,.1-3,3.28,3.28,0,0,0,.51-0.6c0.11-1,.67-1.48.72-2.49-0.27,0-.61-0.05-0.62.2-0.3-.11-0.38.48-0.51,0.2a1.7,1.7,0,0,1,.31-1C6,2.68,6.58,2.28,7.23,1.9c1.74-.24,4.65-0.45,6.09.2C13.36,2.72,13,3,13.11,3.6H11.56a30.6,30.6,0,0,0-3,1C8.33,4.66,8.29,4.93,8.05,5a5.91,5.91,0,0,1-.31,1C7.66,7.43,7.87,8.59,7.84,10Z" transform="translate(0 0)" style="fill:#45c2af"/></g></svg>