<svg id="Layer_1" data-name="Layer 1" xmlns="http://www.w3.org/2000/svg" viewBox="0 0 21.77 21.33"><title>inst-hover</title><g id="instagram"><path d="M21.77,12.15c0-2.39-.34-4.79-0.3-7.13,0-.79-0.09-1.54-0.15-2.28a5.29,5.29,0,0,1-.15-1.06A8.8,8.8,0,0,1,20.7.83,7.67,7.67,0,0,0,19,.61c-0.66,0-1.25-.12-1.9-0.15-1.94-.1-4-0.08-6-0.08A43.25,43.25,0,0,1,5.37,0H3.17a0.6,0.6,0,0,1-.23.08,9.25,9.25,0,0,0-1.59.3,2.81,2.81,0,0,1-.68.3,3,3,0,0,0-.61.38c-0.19.21,0.18,0.45,0,.61V2.58a1.73,1.73,0,0,1,.08.83v1c0,1.28.13,2.4,0.08,3.72a38.7,38.7,0,0,1,.08,9.41,14.11,14.11,0,0,1,.46,1.75,7.61,7.61,0,0,0,.68,1.52,6.73,6.73,0,0,0,1.9.23,4.34,4.34,0,0,0,1.14.3c2.84-.21,5.5-0.15,8.43-0.23a34.61,34.61,0,0,0,8.28-.23,1.77,1.77,0,0,0,.23-0.76,2.22,2.22,0,0,1,.23-0.76C21.75,17,21.78,14.57,21.77,12.15Zm-13-6.22a9.43,9.43,0,0,1,2.43-.3,10.79,10.79,0,0,1,1.9.46c0.12,0.18-.24.55,0.15,0.68V6.83c0.06,0,.15,0,0.15.08a1.92,1.92,0,0,1,1.06.38c0.45,0.05.54,0.48,1.14,0.38a2.18,2.18,0,0,0-.08.83,11.88,11.88,0,0,1,.3,4.25,1.86,1.86,0,0,0-.3.68,9.81,9.81,0,0,1-.84,1.06,1.08,1.08,0,0,1-.45.53,0.89,0.89,0,0,1-.46.53A1,1,0,0,1,13,15.49a3.44,3.44,0,0,0-1.21.61c-0.82-.1-1.65-0.17-2.43-0.3a1.94,1.94,0,0,0-.83-0.3A2,2,0,0,0,7.64,15a3.79,3.79,0,0,0-.46-0.23,2.32,2.32,0,0,0-.46-0.23,11.72,11.72,0,0,1-.53-1.06,5.55,5.55,0,0,1-.46-1.21,13.41,13.41,0,0,1,.38-3.8c0.35-.59.78-1.09,1.14-1.67a0.3,0.3,0,0,0,.38-0.3,2.53,2.53,0,0,0,.68-0.08A1.78,1.78,0,0,0,8.78,5.92ZM7.11,3.19A3.27,3.27,0,0,1,7,2.13a2.84,2.84,0,0,1,.3-0.53c0-.07-0.09-0.06-0.15-0.08a1,1,0,0,1,.83,0C8.16,2.05,7.67,2,7.49,2.2c0,0.17.32,0,.46,0.08,0,0.85-.06,1.5,0,2.2H7.49c0,0.23.23,0.23,0.46,0.23A2.68,2.68,0,0,0,8,5.31,3,3,0,0,1,7,5.39C6.86,4.8,7.2,4,7.11,3.19ZM6.43,1.59a0.12,0.12,0,0,1,.15.08,1.1,1.1,0,0,1-.08.91A2.44,2.44,0,0,1,6.43,1.59ZM6.58,3.42A0.44,0.44,0,0,1,6.43,3,0.44,0.44,0,0,1,6.58,3.42Zm0,1.37c-0.06.14-.08,0-0.08-0.15S6.59,4.68,6.58,4.78ZM6.43,5a0.77,0.77,0,0,1,.23.23c0,0.19-.28.18-0.38,0.08S6.39,5.12,6.43,5ZM4.08,3.79c0-.11,0-0.21-0.08-0.23-0.07-.73.13-1.41,0-2a3.41,3.41,0,0,1,1.14-.08V2.66a0.49,0.49,0,0,1-.38.08C4.71,3,5.08,2.86,5.14,3a9.3,9.3,0,0,0,.15,2.43c-0.57-.06-0.91.11-1.44,0.08,0.1-.61,0-1.43.53-1.59A0.81,0.81,0,0,0,4.08,3.79Zm-0.53,0c-0.2,0-.22-0.53-0.08-0.61C3.8,3.19,3.72,3.69,3.55,3.79Zm-0.15,1A3.67,3.67,0,0,0,3.47,4.1C3.7,4.11,3.73,4.87,3.39,4.78Zm0.23-2c-0.26.05-.27-0.27-0.15-0.38S3.74,2.62,3.62,2.73Zm0-1.14a0.49,0.49,0,0,1-.08.3,0.78,0.78,0,0,1-.23-0.23C3.34,1.57,3.51,1.61,3.62,1.59ZM3.39,5.31c0.15,0,.11.34-0.08,0.23A0.36,0.36,0,0,0,3.39,5.31ZM2.71,1.59c0,0.26-.44.32-0.38,0H2.71Zm-1,.08A3.52,3.52,0,0,1,1.34,2C1.13,1.88,1.43,1.58,1.72,1.67Zm-0.46.76L2,1.82A0.58,0.58,0,0,1,2,1.59H2.26C2.36,2,2,1.89,2,2.12a0.62,0.62,0,0,1-.08.23,4.67,4.67,0,0,1,.08,1,1.79,1.79,0,0,1-.61.23C1.37,3.14,1.21,2.89,1.27,2.43ZM1.34,5.69V4.1c0.2-.18.4-0.36,0.61-0.53C2.25,4.06,2.13,5,2.41,5.46A8.81,8.81,0,0,1,1.34,5.69ZM19.56,16.78a21.35,21.35,0,0,1-.38,2.81c-2.89.12-6,0-8.88,0.15-0.2,0-.27,0-0.23-0.23a4.45,4.45,0,0,1-.53.23,1.24,1.24,0,0,0,.15-1.29c-0.8,0-.8.82-1.14,1.29-0.69-.05-1.14.13-1.82,0.08,0.18-.71.75-1,0.91-1.75-0.39-.55-1,0.14-1.21.45-0.2.48-.56,0.81-0.76,1.29h-1c0.24-.47.49-0.93,0.76-1.37a5.13,5.13,0,0,0,.68-1.37c-0.16-.28-0.42,0-0.68,0-0.12.18-.27,0.33-0.38,0.53a8.63,8.63,0,0,0-.68,1.14C4.2,19,4,18.75,3.85,19c-0.39.27-.58,0.74-1,1-0.17-.06,0-0.36.15-0.38A0.9,0.9,0,0,1,3.09,19a2.41,2.41,0,0,1,.38-0.91c0.12-.74.52-1.2,0.68-1.9a1.93,1.93,0,0,0-1,1,7.29,7.29,0,0,0-.68,1.29,1.72,1.72,0,0,1-.08-0.84c0.12-.59.3-1.12,0.38-1.75A2.61,2.61,0,0,0,3,15a0.71,0.71,0,0,0-.08-0.76,0.54,0.54,0,0,0-.45.3c-0.19,0-.19.51-0.3,0.3,0-2.59-.45-4.81-0.46-7.44A1.94,1.94,0,0,0,1.5,6.76c1.63,0,3.12.09,4.78,0.23a3.45,3.45,0,0,1-.3.38,1.88,1.88,0,0,0-.38.3A12.67,12.67,0,0,0,5,13.82a4.39,4.39,0,0,0,1,1.44c0.91,0.49,1.63,1.15,2.51,1.67a14.15,14.15,0,0,0,5.54,0,4.32,4.32,0,0,0,.68-0.38c1.36-1.24,2.75-2.46,3-4.86V10.32a4.93,4.93,0,0,0-1.75-3.64,3.86,3.86,0,0,1,1.67.08,5.8,5.8,0,0,0,.68,0,8.77,8.77,0,0,1,1.44,0,5.75,5.75,0,0,1,.23.76c-0.06,1.68-.19,3.3-0.15,5.09,0.1,0.45.13,1,.23,1.44A17,17,0,0,1,19.56,16.78ZM19.94,5.62C19.3,5.5,18.71,5.33,18,5.24c0.07-.33.8,0,1-0.23,0.38-.22.29-0.92,0.3-1.52a5,5,0,0,0,.08-1.06C19,1.48,17.63,2,16.53,2a6,6,0,0,0-.3,2.66c0.17,0.49,1,.29,1.52.46-0.14.33-.69,0.06-1,0.08S16,5.11,15.77,5c-2.29.08-4.28,0-6.53,0.15a17.2,17.2,0,0,0-.08-3.64h3.11C11.93,1.88,11.36,2,11,2.35a3.15,3.15,0,0,0-1.14.91,1,1,0,0,0,.76-0.38c0.36-.07.48-0.38,0.83-0.46a5.9,5.9,0,0,1,1.67-.91,3.54,3.54,0,0,1,1,.08c1.28,0,2.46.13,3.8,0.08a13,13,0,0,1,2,.3,7.11,7.11,0,0,1,.3.91A25.58,25.58,0,0,1,19.94,5.62ZM14.1,1.9c0.11,0,0-.09,0,0h0Zm0,0a3.26,3.26,0,0,0-1.37.68A3.31,3.31,0,0,0,14.1,1.9ZM15.16,2.5c0.11,0,0-.09,0,0h0Zm-1.75.91a6,6,0,0,0,1.75-.91,7.1,7.1,0,0,0-1,.38A3.72,3.72,0,0,0,13.42,3.42Zm-0.68-.84c-0.11,0,0,.09,0,0h0ZM12,3.19c0.11,0,0-.09,0,0h0ZM12,3.26c0.06,0,.07,0,0.08-0.08S12,3.22,12,3.26Zm-0.08.08c0.06,0,.07,0,0.08-0.08S11.9,3.29,11.9,3.34Zm-0.83.61a2.06,2.06,0,0,0,.83-0.61A2,2,0,0,0,11.06,3.95Zm2.28,1a6.68,6.68,0,0,0,1.21-.53,4.59,4.59,0,0,0,1-.76,4.11,4.11,0,0,0-1.22.53A7.44,7.44,0,0,0,13.34,4.93Zm-2.28-1c-0.32-.07,0,0.23,0,0h0Zm-0.53.38s0.12,0,.08-0.08S10.49,4.29,10.53,4.33Zm2.81,0.61c-0.11,0,0,.09,0,0h0ZM12.2,6.76a3.35,3.35,0,0,0-1-.38,5.32,5.32,0,0,0-1.75.23l-0.91.45a4.08,4.08,0,0,1-.76.53,1.59,1.59,0,0,1-.68.61,0.48,0.48,0,0,1-.3.38A1.09,1.09,0,0,1,6.58,9c0,0.12,0,.29-0.08.3a18.36,18.36,0,0,0,.68,4.18,5,5,0,0,0,1.44,1.29,6.32,6.32,0,0,0,2.13.53,3.19,3.19,0,0,1,.91-0.08,5.09,5.09,0,0,0,2.81-1.44,1.58,1.58,0,0,1,.45-0.68c-0.25-.67.29-1.1,0.46-1.6A8.52,8.52,0,0,0,14.78,8a4,4,0,0,0-1.37-1.14c-0.06,0-.15,0-0.15-0.08A1.36,1.36,0,0,0,12.2,6.76ZM8.78,11.08a0.62,0.62,0,0,1-.15-0.38C8.89,10.63,8.75,10.94,8.78,11.08Zm0.08,0.3c0-.12.08,0,0.08,0.08S8.86,11.47,8.86,11.39ZM9.32,9.34c0-.09.08,0,0.08,0S9.32,9.38,9.32,9.34ZM11,7.21a1,1,0,0,0,.08.84C10.76,8,10.49,7.16,11,7.21Zm0.38,3.95s0.05-.1.08-0.08S11.39,11.18,11.37,11.16ZM12.12,14c0-.11.07,0,0.15,0A0.08,0.08,0,0,1,12.12,14Zm2.2-2.58c-0.23-.06-0.14.21-0.38,0.15a1.57,1.57,0,0,1,.23-0.46C14.31,11.18,14.35,11.29,14.33,11.46Zm-1.14-3.8a2.75,2.75,0,0,1,.61.38,2,2,0,0,0,.38.53,20.57,20.57,0,0,1,.15,2.35c-0.26.1-.44,0.27-0.68,0.38a4.44,4.44,0,0,1-1.9-.46c-0.17-.26-0.36-0.5-0.53-0.76V9a4.2,4.2,0,0,0,.46-0.61,0.56,0.56,0,0,0,.45-0.61A0.38,0.38,0,0,1,12,7.59a2,2,0,0,1,.38.23A6,6,0,0,1,13.19,7.67Z" transform="translate(0)" style="fill:#45c2af"/></g></svg>