<svg id="Layer_1" data-name="Layer 1" xmlns="http://www.w3.org/2000/svg" viewBox="0 0 23.49 20.17"><title>tw</title><g id="twitter"><path d="M23.45,4.08A2.16,2.16,0,0,0,22,3.71H20.93a8.34,8.34,0,0,1,.52-1,5.42,5.42,0,0,0,.22-1.26c0.13-.17.18-0.42,0.3-0.59A0.6,0.6,0,0,0,22,.23C22,0,21.75,0,21.45,0a0.51,0.51,0,0,0-.22.15c-0.45.43-.78,1-1.26,1.41H19.9c-0.09,0,0,0-.08.07l-0.37.22a3,3,0,0,1-.89.52A6.08,6.08,0,0,0,16.71,2a6.44,6.44,0,0,0-3,.74,7.32,7.32,0,0,0-2.15,1.63,8.05,8.05,0,0,0-.37.74s0,0.09-.07.07a1.22,1.22,0,0,1-.07.52c0,0.13.2,0.43,0,.52a7.15,7.15,0,0,1-2.15-1A10.15,10.15,0,0,1,6.78,4.16,6,6,0,0,1,5,2.82a3.58,3.58,0,0,1-.67-0.89C4,1.77,4.16,1,3.59,1c-0.32,0-.34.2-0.44,0.37a1.63,1.63,0,0,0-.37.52S2.77,2,2.71,2a17.77,17.77,0,0,0-.52,3.26,3.07,3.07,0,0,0,.59,1,1.11,1.11,0,0,0-.89.52,3.72,3.72,0,0,0,.74,2.3,2.94,2.94,0,0,0,.59,1,1,1,0,0,0,.3.45,2.21,2.21,0,0,0,.15.22c0,0.11.29,0.18,0.07,0.22a2.75,2.75,0,0,0-1.26.37,1.92,1.92,0,0,0,0,1.11,4.45,4.45,0,0,1,.3.52,18.31,18.31,0,0,0,1.63,1.11,15.23,15.23,0,0,0,1.85.37,1.44,1.44,0,0,1-.59.74,19.23,19.23,0,0,1-2.74.74c-0.56,0-1,.23-1.56.22C1,16.29.52,16.24,0.26,16.38a0.8,0.8,0,0,0-.22.22,0.72,0.72,0,0,0,.44.89,0.45,0.45,0,0,0,.37.37,0.8,0.8,0,0,0,.44.37,10.58,10.58,0,0,0,1.93,1.11c0.83,0.18,1.65.38,2.52,0.52s1.9,0.12,2.82.22h1a9.91,9.91,0,0,0,1.85.07,0.81,0.81,0,0,1,.52-0.07,9.28,9.28,0,0,0,1.63-.74c0.57-.24,1-0.64,1.56-0.89a10,10,0,0,0,2.52-2.37A1.66,1.66,0,0,0,18,15.35a3.34,3.34,0,0,0,.59-0.67,9.92,9.92,0,0,0,1-1.41c0.32-.5.58-1.05,0.89-1.56,0-.41.31-0.48,0.3-0.89,0.19-.23.18-0.66,0.37-0.89a1.38,1.38,0,0,1,.07-0.59A12.15,12.15,0,0,0,21,5.94a5.74,5.74,0,0,0,1.63-.59A1,1,0,0,0,23.45,4.08ZM20,8.16a4.73,4.73,0,0,1-1,2,8.65,8.65,0,0,1-.07.89,4.31,4.31,0,0,0-.37,1c-0.2.27-.33,0.61-0.52,0.89-0.37.55-.78,1.05-1.19,1.56s-0.91,1-1.33,1.48-0.94.88-1.41,1.33a5,5,0,0,0-1.26.67,5,5,0,0,0-.67.3c-0.18.15-.5,0.14-0.67,0.3A24,24,0,0,1,8,18.76a26.33,26.33,0,0,1-3-.37,11.79,11.79,0,0,1-2.3-1,1.58,1.58,0,0,1,1-.22A3,3,0,0,1,4,17a3.47,3.47,0,0,0,.52-0.07,9.52,9.52,0,0,0,1.7-.59,8.84,8.84,0,0,0,.67-0.59,0.74,0.74,0,0,1,.22-0.44,2,2,0,0,0,.15-0.82,1.2,1.2,0,0,0,.3-0.67,0.6,0.6,0,0,0-.3-0.37,1.48,1.48,0,0,0-.44-0.22,1.37,1.37,0,0,1-.59-0.08c-0.15,0-.49.09-0.52-0.07a3.61,3.61,0,0,1-1.85-.74,4.48,4.48,0,0,0,1.33-.74c0.52-.08,1.06-0.13,1.11-0.67,0-.72-0.77-0.66-1.33-0.82A12.12,12.12,0,0,1,3.22,7.57,3,3,0,0,0,4,7.12,0.6,0.6,0,0,0,4.63,6.6,0.94,0.94,0,0,0,4,5.79,3.5,3.5,0,0,1,3.37,5a18.47,18.47,0,0,1,.07-2.37c0.06,0,.07,0,0.07.07,0.23,0.44.56,0.77,0.82,1.19A8.87,8.87,0,0,0,5.89,5c0.45,0.41,1.11.62,1.56,1A16.41,16.41,0,0,1,9.15,7a4.29,4.29,0,0,0,2,.59l0.59-.3c0.26-.46-0.06-1.08.15-1.63a4.35,4.35,0,0,1,1.26-1.48A7.81,7.81,0,0,0,14,3.64a4.82,4.82,0,0,0,1-.37,6.26,6.26,0,0,0,1-.15h1.26a7,7,0,0,0,.74.15,1.83,1.83,0,0,0,.67.37,4.47,4.47,0,0,1,1.41,3A10.23,10.23,0,0,0,20,8.16Zm0.3-5.63a1.1,1.1,0,0,1-.59.82,2,2,0,0,0-.15-0.22c0-.21.21-0.19,0.3-0.3a1.92,1.92,0,0,1,.44-0.3C20.33,2.44,20.45,2.48,20.34,2.53Zm-5.48,3a1.36,1.36,0,0,0,.52.37,0.71,0.71,0,0,0,.59.37,2,2,0,0,0,.37-0.22,0.94,0.94,0,0,0,.3-0.3,2.36,2.36,0,0,0-.37-1.33A0.93,0.93,0,0,0,14.86,5.57Z" transform="translate(0 0)" style="fill:#231f20"/></g></svg>